<svg aria-hidden="true" style="position: absolute; width: 0; height: 0; overflow: hidden;" version="1.1" xmlns="http://www.w3.org/2000/svg" xmlns:xlink="http://www.w3.org/1999/xlink">
<defs>
<symbol id="icon-phone-black" viewBox="0 0 32 32">
<path d="M24.882 19.774l-3.268-0.373c-0.785-0.090-1.557 0.18-2.11 0.733l-2.367 2.367c-3.641-1.853-6.626-4.825-8.478-8.478l2.38-2.38c0.553-0.553 0.823-1.325 0.733-2.11l-0.373-3.242c-0.154-1.299-1.248-2.277-2.56-2.277h-2.226c-1.454 0-2.663 1.209-2.573 2.663 0.682 10.987 9.469 19.761 20.443 20.443 1.454 0.090 2.663-1.119 2.663-2.573v-2.226c0.013-1.299-0.965-2.393-2.264-2.547z"></path>
</symbol>
<symbol id="icon-person-black" viewBox="0 0 32 32">
<path d="M16 16c2.947 0 5.333-2.387 5.333-5.333s-2.387-5.333-5.333-5.333c-2.947 0-5.333 2.387-5.333 5.333s2.387 5.333 5.333 5.333zM16 18.667c-3.56 0-10.667 1.787-10.667 5.333v1.333c0 0.733 0.6 1.333 1.333 1.333h18.667c0.733 0 1.333-0.6 1.333-1.333v-1.333c0-3.547-7.107-5.333-10.667-5.333z"></path>
</symbol>
<symbol id="icon-email-black" viewBox="0 0 32 32">
<path d="M26.667 5.333h-21.333c-1.467 0-2.653 1.2-2.653 2.667l-0.013 16c0 1.467 1.2 2.667 2.667 2.667h21.333c1.467 0 2.667-1.2 2.667-2.667v-16c0-1.467-1.2-2.667-2.667-2.667zM26.133 11l-9.427 5.893c-0.427 0.267-0.987 0.267-1.413 0l-9.427-5.893c-0.333-0.213-0.533-0.573-0.533-0.96 0-0.893 0.973-1.427 1.733-0.96l8.933 5.587 8.933-5.587c0.76-0.467 1.733 0.067 1.733 0.96 0 0.387-0.2 0.747-0.533 0.96z"></path>
</symbol>
<symbol id="icon-smartphone" viewBox="0 0 32 32">
<path d="M23 0h-14c-1.654 0-3 1.346-3 3v26c0 1.654 1.346 3 3 3h14c1.654 0 3-1.346 3-3v-26c0-1.654-1.346-3-3-3zM9 2h14c0.552 0 1 0.448 1 1v21h-16v-21c0-0.552 0.448-1 1-1zM23 30h-14c-0.552 0-1-0.448-1-1v-3h16v3c0 0.552-0.448 1-1 1z"></path>
<path d="M10.707 27.478c0.391 0.364 0.391 0.956 0 1.32s-1.024 0.365-1.414 0c-0.391-0.364-0.391-0.956 0-1.32s1.024-0.365 1.414 0z"></path>
</symbol>
<symbol id="icon-envelope" viewBox="0 0 32 32">
<path d="M29 4h-26c-1.654 0-3 1.346-3 3v18c0 1.654 1.346 3 3 3h26c1.654 0 3-1.346 3-3v-18c0-1.654-1.346-3-3-3zM29 6c0.136 0 0.265 0.028 0.383 0.077l-13.383 11.599-13.383-11.599c0.118-0.049 0.247-0.077 0.383-0.077h26zM29 26h-26c-0.552 0-1-0.448-1-1v-16.81l13.345 11.565c0.188 0.163 0.422 0.244 0.655 0.244s0.467-0.081 0.655-0.244l13.345-11.565v16.81c0 0.552-0.448 1-1 1z"></path>
</symbol>
</defs>
<defs>
<symbol id="icon-facebook" viewBox="0 0 32 32">
<path d="M21.329 5.313h2.921v-5.088c-0.504-0.069-2.237-0.225-4.256-0.225-4.212 0-7.097 2.649-7.097 7.519v4.481h-4.648v5.688h4.648v14.312h5.699v-14.311h4.46l0.708-5.688h-5.169v-3.919c0.001-1.644 0.444-2.769 2.735-2.769z"></path>
</symbol>
<symbol id="icon-twitter" viewBox="0 0 32 32">
<path d="M32 6.078c-1.19 0.522-2.458 0.868-3.78 1.036 1.36-0.812 2.398-2.088 2.886-3.626-1.268 0.756-2.668 1.29-4.16 1.588-1.204-1.282-2.92-2.076-4.792-2.076-3.632 0-6.556 2.948-6.556 6.562 0 0.52 0.044 1.020 0.152 1.496-5.454-0.266-10.28-2.88-13.522-6.862-0.566 0.982-0.898 2.106-0.898 3.316 0 2.272 1.17 4.286 2.914 5.452-1.054-0.020-2.088-0.326-2.964-0.808 0 0.020 0 0.046 0 0.072 0 3.188 2.274 5.836 5.256 6.446-0.534 0.146-1.116 0.216-1.72 0.216-0.42 0-0.844-0.024-1.242-0.112 0.85 2.598 3.262 4.508 6.13 4.57-2.232 1.746-5.066 2.798-8.134 2.798-0.538 0-1.054-0.024-1.57-0.090 2.906 1.874 6.35 2.944 10.064 2.944 12.072 0 18.672-10 18.672-18.668 0-0.29-0.010-0.57-0.024-0.848 1.302-0.924 2.396-2.078 3.288-3.406z"></path>
</symbol>
<symbol id="icon-instagram" viewBox="0 0 32 32">
<path d="M31.969 9.408c-0.075-1.7-0.35-2.869-0.744-3.882-0.406-1.075-1.032-2.038-1.851-2.838-0.8-0.813-1.769-1.444-2.832-1.844-1.019-0.394-2.182-0.669-3.882-0.744-1.713-0.081-2.257-0.1-6.601-0.1s-4.888 0.019-6.595 0.094c-1.7 0.075-2.869 0.35-3.882 0.744-1.075 0.406-2.038 1.031-2.838 1.85-0.813 0.8-1.444 1.769-1.844 2.832-0.394 1.019-0.669 2.182-0.744 3.882-0.081 1.713-0.1 2.257-0.1 6.601s0.019 4.888 0.094 6.595c0.075 1.7 0.35 2.869 0.744 3.882 0.406 1.075 1.038 2.038 1.85 2.838 0.8 0.813 1.769 1.444 2.832 1.844 1.019 0.394 2.182 0.669 3.882 0.744 1.706 0.075 2.25 0.094 6.595 0.094s4.888-0.019 6.595-0.094c1.7-0.075 2.869-0.35 3.882-0.744 2.151-0.832 3.851-2.532 4.682-4.682 0.394-1.019 0.669-2.182 0.744-3.882 0.075-1.707 0.094-2.251 0.094-6.595s-0.006-4.888-0.081-6.595zM29.087 22.473c-0.069 1.563-0.331 2.407-0.55 2.969-0.538 1.394-1.644 2.5-3.038 3.038-0.563 0.219-1.413 0.481-2.969 0.55-1.688 0.075-2.194 0.094-6.464 0.094s-4.782-0.019-6.464-0.094c-1.563-0.069-2.407-0.331-2.969-0.55-0.694-0.256-1.325-0.663-1.838-1.194-0.531-0.519-0.938-1.144-1.194-1.838-0.219-0.563-0.481-1.413-0.55-2.969-0.075-1.688-0.094-2.194-0.094-6.464s0.019-4.782 0.094-6.464c0.069-1.563 0.331-2.407 0.55-2.969 0.256-0.694 0.663-1.325 1.2-1.838 0.519-0.531 1.144-0.938 1.838-1.194 0.563-0.219 1.413-0.481 2.969-0.55 1.688-0.075 2.194-0.094 6.464-0.094 4.276 0 4.782 0.019 6.464 0.094 1.563 0.069 2.407 0.331 2.969 0.55 0.694 0.256 1.325 0.662 1.838 1.194 0.531 0.519 0.938 1.144 1.194 1.838 0.219 0.563 0.481 1.413 0.55 2.969 0.075 1.688 0.094 2.194 0.094 6.464s-0.019 4.77-0.094 6.458z"></path>
<path d="M16.059 7.783c-4.538 0-8.22 3.682-8.22 8.22s3.682 8.22 8.22 8.22c4.539 0 8.22-3.682 8.22-8.22s-3.682-8.22-8.22-8.22zM16.059 21.335c-2.944 0-5.332-2.388-5.332-5.332s2.388-5.332 5.332-5.332c2.944 0 5.332 2.388 5.332 5.332s-2.388 5.332-5.332 5.332z"></path>
<path d="M26.524 7.458c0 1.060-0.859 1.919-1.919 1.919s-1.919-0.859-1.919-1.919c0-1.060 0.859-1.919 1.919-1.919s1.919 0.859 1.919 1.919z"></path>
</symbol>
<symbol id="icon-linkedin" viewBox="0 0 32 32">
<path d="M31.992 32v-0.001h0.008v-11.736c0-5.741-1.236-10.164-7.948-10.164-3.227 0-5.392 1.771-6.276 3.449h-0.093v-2.913h-6.364v21.364h6.627v-10.579c0-2.785 0.528-5.479 3.977-5.479 3.399 0 3.449 3.179 3.449 5.657v10.401h6.62z"></path>
<path d="M0.528 10.636h6.635v21.364h-6.635v-21.364z"></path>
<path d="M3.843 0c-2.121 0-3.843 1.721-3.843 3.843s1.721 3.879 3.843 3.879c2.121 0 3.843-1.757 3.843-3.879-0.001-2.121-1.723-3.843-3.843-3.843v0z"></path>
</symbol>
</defs>
<defs>
<symbol id="icon-send" viewBox="0 0 32 32">
<path d="M32 0l-32 18 10.227 3.788 15.773-14.788-11.998 16.186 0.010 0.004-0.012-0.004v8.814l5.735-6.691 7.265 2.691 5-28z"></path>
</symbol>
</defs>
<symbol id="icon-cart" viewBox="0 0 32 32">
<path d="M12 29c0 1.657-1.343 3-3 3s-3-1.343-3-3c0-1.657 1.343-3 3-3s3 1.343 3 3z"></path>
<path d="M32 29c0 1.657-1.343 3-3 3s-3-1.343-3-3c0-1.657 1.343-3 3-3s3 1.343 3 3z"></path>
<path d="M32 16v-12h-24c0-1.105-0.895-2-2-2h-6v2h4l1.502 12.877c-0.915 0.733-1.502 1.859-1.502 3.123 0 2.209 1.791 4 4 4h24v-2h-24c-1.105 0-2-0.895-2-2 0-0.007 0-0.014 0-0.020l26-3.98z"></path>
</symbol>
<symbol id="icon-github" viewBox="0 0 32 32">
<path d="M16 0.395c-8.836 0-16 7.163-16 16 0 7.069 4.585 13.067 10.942 15.182 0.8 0.148 1.094-0.347 1.094-0.77 0-0.381-0.015-1.642-0.022-2.979-4.452 0.968-5.391-1.888-5.391-1.888-0.728-1.849-1.776-2.341-1.776-2.341-1.452-0.993 0.11-0.973 0.11-0.973 1.606 0.113 2.452 1.649 2.452 1.649 1.427 2.446 3.743 1.739 4.656 1.33 0.143-1.034 0.558-1.74 1.016-2.14-3.554-0.404-7.29-1.777-7.29-7.907 0-1.747 0.625-3.174 1.649-4.295-0.166-0.403-0.714-2.030 0.155-4.234 0 0 1.344-0.43 4.401 1.64 1.276-0.355 2.645-0.532 4.005-0.539 1.359 0.006 2.729 0.184 4.008 0.539 3.054-2.070 4.395-1.64 4.395-1.64 0.871 2.204 0.323 3.831 0.157 4.234 1.026 1.12 1.647 2.548 1.647 4.295 0 6.145-3.743 7.498-7.306 7.895 0.574 0.497 1.085 1.47 1.085 2.963 0 2.141-0.019 3.864-0.019 4.391 0 0.426 0.288 0.925 1.099 0.768 6.354-2.118 10.933-8.113 10.933-15.18 0-8.837-7.164-16-16-16z"></path>
</symbol>
<symbol version="1.1" id="icon-filter" xmlns="http://www.w3.org/2000/svg" xmlns:xlink="http://www.w3.org/1999/xlink" xml:space="preserve" viewBox="0 0 971.986 971.986">
    <path d="M370.216,459.3c10.2,11.1,15.8,25.6,15.8,40.6v442c0,26.601,32.1,40.101,51.1,21.4l123.3-141.3
		c16.5-19.8,25.6-29.601,25.6-49.2V500c0-15,5.7-29.5,15.8-40.601L955.615,75.5c26.5-28.8,6.101-75.5-33.1-75.5h-873
		c-39.2,0-59.7,46.6-33.1,75.5L370.216,459.3z">
    </path>
</symbol>
<symbol version="1.1" id="icon-product" xmlns="http://www.w3.org/2000/svg" xmlns:xlink="http://www.w3.org/1999/xlink" xml:space="preserve" viewBox="0 0 307.984 307.984">
    <path d="M302.409,5.883c-1.652-0.815-3.46-1.132-5.228-0.989c0.021-0.014,0.04-0.029,0.061-0.043H103.917
	c-2.13,0-4.204,0.68-5.92,1.941L4.254,75.66c0.008-0.003,0.016-0.004,0.023-0.006C1.693,77.462,0,80.455,0,83.847v209.287
	c0,5.523,4.477,10,10,10h197.99c2.522,0,4.82-0.941,6.579-2.481c0.096-0.083,0.195-0.161,0.288-0.249l89.994-85
	c2-1.889,3.133-4.519,3.133-7.27V14.851C307.984,11.044,305.823,7.567,302.409,5.883z M107.195,24.851h64.577l-59.68,48.997h-71.59
	L107.195,24.851z M147.917,142.134h-72c-8.271,0-15-6.729-15-15s6.729-15,15-15h72c8.271,0,15,6.729,15,15
	S156.188,142.134,147.917,142.134z M204.598,73.847h-62.536l59.681-48.997h66.763L204.598,73.847z"></path>
  </symbol>
<symbol id="icon-guarantee" viewBox="0 0 32 32">
<path d="M31.299 14.475c-0.218-0.29-0.445-0.589-0.48-0.822-0.039-0.248 0.086-0.611 0.207-0.962 0.176-0.509 0.375-1.086 0.196-1.636-0.181-0.56-0.688-0.914-1.134-1.226-0.3-0.21-0.61-0.426-0.719-0.64-0.112-0.219-0.105-0.601-0.099-0.97 0.009-0.541 0.019-1.154-0.323-1.625-0.344-0.473-0.932-0.652-1.451-0.811-0.352-0.107-0.715-0.218-0.887-0.39s-0.283-0.536-0.39-0.888c-0.158-0.518-0.337-1.107-0.811-1.45-0.471-0.343-1.084-0.333-1.624-0.324-0.369 0.007-0.752 0.013-0.97-0.099-0.214-0.109-0.43-0.419-0.64-0.719-0.311-0.446-0.665-0.952-1.226-1.134-0.55-0.178-1.128 0.020-1.638 0.195-0.351 0.121-0.715 0.246-0.962 0.208-0.233-0.036-0.532-0.262-0.822-0.48-0.436-0.329-0.931-0.702-1.525-0.702s-1.089 0.373-1.526 0.702c-0.29 0.219-0.589 0.444-0.822 0.48-0.246 0.040-0.611-0.087-0.962-0.208-0.509-0.175-1.087-0.374-1.636-0.196-0.56 0.182-0.914 0.688-1.226 1.134-0.21 0.3-0.426 0.61-0.64 0.719-0.219 0.112-0.601 0.105-0.97 0.099-0.541-0.010-1.154-0.019-1.625 0.324-0.473 0.344-0.652 0.932-0.811 1.45-0.107 0.352-0.218 0.716-0.39 0.888s-0.536 0.283-0.888 0.391c-0.518 0.158-1.106 0.338-1.45 0.811-0.343 0.471-0.333 1.083-0.324 1.625 0.006 0.37 0.012 0.751-0.099 0.97-0.109 0.213-0.419 0.43-0.719 0.639-0.446 0.312-0.952 0.665-1.135 1.226-0.178 0.55 0.020 1.127 0.196 1.637 0.121 0.351 0.246 0.714 0.208 0.962-0.036 0.232-0.262 0.532-0.48 0.822-0.33 0.437-0.703 0.931-0.703 1.526s0.373 1.089 0.702 1.526c0.219 0.29 0.444 0.59 0.481 0.822l0.988-0.155c-0.075-0.48-0.377-0.881-0.67-1.268-0.246-0.326-0.5-0.664-0.5-0.924s0.254-0.597 0.5-0.924c0.292-0.388 0.595-0.789 0.67-1.268 0.078-0.493-0.089-0.976-0.25-1.443-0.131-0.379-0.266-0.771-0.19-1.002 0.079-0.242 0.423-0.482 0.756-0.715 0.4-0.28 0.814-0.569 1.037-1.005 0.225-0.441 0.217-0.95 0.208-1.441-0.006-0.403-0.013-0.819 0.132-1.019 0.148-0.202 0.547-0.324 0.934-0.442 0.469-0.144 0.955-0.292 1.303-0.64s0.497-0.833 0.639-1.303c0.118-0.386 0.239-0.787 0.442-0.934 0.2-0.146 0.617-0.139 1.019-0.132 0.492 0.008 1 0.017 1.441-0.208 0.436-0.223 0.725-0.636 1.005-1.036 0.232-0.333 0.473-0.677 0.715-0.756 0.231-0.076 0.623 0.060 1.002 0.19 0.467 0.161 0.95 0.327 1.443 0.25 0.479-0.075 0.88-0.377 1.268-0.67 0.326-0.246 0.664-0.5 0.923-0.5s0.597 0.254 0.924 0.5c0.388 0.292 0.789 0.595 1.268 0.67 0.492 0.076 0.976-0.089 1.443-0.25 0.379-0.131 0.77-0.266 1.003-0.19 0.241 0.079 0.482 0.422 0.715 0.756 0.279 0.4 0.569 0.814 1.005 1.037 0.441 0.225 0.951 0.218 1.442 0.208 0.403-0.006 0.82-0.014 1.020 0.132 0.203 0.148 0.324 0.547 0.442 0.934 0.143 0.469 0.291 0.955 0.64 1.303s0.834 0.497 1.302 0.639c0.386 0.118 0.786 0.24 0.933 0.442 0.146 0.2 0.139 0.617 0.133 1.019-0.008 0.492-0.016 1.001 0.209 1.441 0.223 0.436 0.636 0.725 1.036 1.005 0.333 0.233 0.677 0.473 0.756 0.716 0.075 0.232-0.059 0.623-0.19 1.002-0.161 0.467-0.327 0.95-0.25 1.443 0.076 0.479 0.378 0.88 0.67 1.268 0.245 0.327 0.5 0.665 0.5 0.924s-0.255 0.597-0.5 0.924c-0.292 0.387-0.594 0.788-0.67 1.268l0.988 0.155c0.036-0.233 0.262-0.532 0.48-0.822 0.328-0.436 0.702-0.931 0.702-1.526s-0.373-1.089-0.701-1.526zM27.202 25.261c-0.469 0.143-0.954 0.291-1.302 0.639s-0.497 0.834-0.64 1.302c-0.117 0.387-0.239 0.786-0.442 0.933-0.2 0.145-0.619 0.139-1.019 0.133-0.492-0.008-1-0.016-1.442 0.209-0.436 0.223-0.724 0.636-1.004 1.036-0.233 0.333-0.474 0.677-0.715 0.756-0.232 0.076-0.623-0.059-1.002-0.19-0.467-0.16-0.951-0.324-1.443-0.25-0.48 0.076-0.881 0.378-1.268 0.67-0.326 0.246-0.664 0.5-0.924 0.5s-0.597-0.255-0.924-0.5c-0.387-0.292-0.789-0.594-1.268-0.67-0.492-0.074-0.976 0.090-1.443 0.25-0.379 0.131-0.77 0.266-1.002 0.19-0.242-0.078-0.482-0.423-0.715-0.756-0.28-0.401-0.569-0.814-1.005-1.037-0.441-0.225-0.95-0.217-1.441-0.209-0.403 0.005-0.819 0.014-1.020-0.133-0.202-0.148-0.325-0.547-0.442-0.933-0.144-0.469-0.292-0.954-0.64-1.302s-0.833-0.497-1.303-0.64c-0.386-0.117-0.787-0.239-0.933-0.442l-0.808 0.589c0.344 0.473 0.932 0.652 1.45 0.81 0.352 0.108 0.716 0.218 0.888 0.39s0.283 0.535 0.391 0.887c0.158 0.518 0.338 1.106 0.811 1.45 0.471 0.343 1.083 0.332 1.625 0.323 0.368-0.004 0.751-0.012 0.97 0.099 0.213 0.109 0.43 0.419 0.639 0.719 0.312 0.447 0.665 0.952 1.226 1.134 0.55 0.177 1.127-0.020 1.636-0.196 0.351-0.12 0.716-0.25 0.962-0.207 0.232 0.036 0.532 0.262 0.822 0.48 0.437 0.329 0.931 0.702 1.525 0.702s1.089-0.373 1.526-0.701c0.29-0.218 0.59-0.445 0.822-0.48 0.244-0.043 0.611 0.086 0.962 0.207 0.51 0.176 1.087 0.375 1.636 0.196 0.561-0.181 0.914-0.688 1.226-1.134 0.209-0.299 0.427-0.61 0.639-0.718 0.219-0.113 0.6-0.107 0.97-0.099 0.538 0.009 1.153 0.019 1.625-0.323 0.473-0.344 0.652-0.931 0.81-1.45 0.108-0.352 0.218-0.716 0.39-0.887s0.535-0.283 0.887-0.39c0.518-0.158 1.107-0.338 1.451-0.811l-0.808-0.588c-0.146 0.202-0.546 0.323-0.933 0.442z"></path>
<path d="M4 23v-1c0-0.276-0.224-0.5-0.5-0.5h-1v1h0.5v0.5c0 0.276-0.224 0.5-0.5 0.5s-0.5-0.224-0.5-0.5v-3c0-0.276 0.224-0.5 0.5-0.5s0.5 0.224 0.5 0.5v0.5h1v-0.5c0-0.827-0.673-1.5-1.5-1.5s-1.5 0.673-1.5 1.5v3c0 0.827 0.673 1.5 1.5 1.5s1.5-0.673 1.5-1.5zM4.5 18.5v4.5c0 0.827 0.673 1.5 1.5 1.5s1.5-0.673 1.5-1.5v-4.5h-1v4.5c0 0.276-0.224 0.5-0.5 0.5s-0.5-0.224-0.5-0.5v-4.5h-1zM8 20v4.5h1v-1h1v1h1v-4.5c0-0.827-0.673-1.5-1.5-1.5s-1.5 0.673-1.5 1.5zM10 20v2.5h-1v-2.5c0-0.276 0.225-0.5 0.5-0.5s0.5 0.224 0.5 0.5zM15 20v4.5h1v-1h1v1h1v-4.5c0-0.827-0.673-1.5-1.5-1.5s-1.5 0.673-1.5 1.5zM16.5 19.5c0.276 0 0.5 0.224 0.5 0.5v2.5h-1v-2.5c0-0.276 0.224-0.5 0.5-0.5zM11.5 19v2.498c0 0.002 0 0.003 0 0.003v2.998h1v-1.575l1.11 1.387c0.095 0.119 0.239 0.188 0.39 0.188h0.5v-1h-0.26l-1.217-1.521c0.836-0.131 1.477-0.857 1.477-1.729 0-0.965-0.785-1.75-1.75-1.75h-0.75c-0.276 0-0.5 0.224-0.5 0.5zM12.5 19.5h0.25c0.413 0 0.75 0.337 0.75 0.75s-0.337 0.75-0.75 0.75h-0.25v-1.5zM20.5 21.404l-1.035-2.59c-0.090-0.224-0.328-0.348-0.559-0.305-0.235 0.045-0.405 0.252-0.405 0.491v5.5h1v-2.904l1.035 2.59c0.078 0.193 0.264 0.314 0.464 0.314 0.032 0 0.064-0.003 0.095-0.009 0.235-0.045 0.405-0.252 0.405-0.491v-5.5h-1v2.904zM24 19.5h1v-1h-3v1h1v5h1v-5zM28 19.5v-1h-2c-0.276 0-0.5 0.224-0.5 0.5v5c0 0.276 0.224 0.5 0.5 0.5h2v-1h-1.5v-1.5h1.5v-1h-1.5v-1.5h1.5zM28.5 19v5c0 0.276 0.224 0.5 0.5 0.5h2v-1h-1.5v-1.5h1.5v-1h-1.5v-1.5h1.5v-1h-2c-0.276 0-0.5 0.224-0.5 0.5z"></path>
<path d="M28.5 16c0-6.893-5.608-12.5-12.5-12.5s-12.5 5.607-12.5 12.5c0 0.503 0.034 1.029 0.1 1.562l0.992-0.124c-0.061-0.492-0.093-0.976-0.093-1.438 0-6.341 5.159-11.5 11.5-11.5s11.5 5.159 11.5 11.5c0 0.462-0.031 0.946-0.093 1.438l0.992 0.124c0.067-0.533 0.101-1.058 0.101-1.562zM23.634 25.895l-0.611-0.791c-2.029 1.567-4.457 2.396-7.022 2.396s-4.992-0.828-7.021-2.395l-0.611 0.791c2.206 1.704 4.845 2.604 7.633 2.604s5.428-0.901 7.633-2.605z"></path>
<path d="M11 10.5h-1v1h0.5v5h1v-5.5c0-0.276-0.224-0.5-0.5-0.5zM13.75 10.5c-0.965 0-1.75 0.785-1.75 1.75v2.5c0 0.965 0.785 1.75 1.75 1.75s1.75-0.785 1.75-1.75v-2.5c0-0.965-0.785-1.75-1.75-1.75zM14.5 14.75c0 0.413-0.337 0.75-0.75 0.75s-0.75-0.337-0.75-0.75v-2.5c0-0.413 0.337-0.75 0.75-0.75s0.75 0.337 0.75 0.75v2.5zM17.75 10.5c-0.965 0-1.75 0.785-1.75 1.75v2.5c0 0.965 0.785 1.75 1.75 1.75s1.75-0.785 1.75-1.75v-2.5c0-0.965-0.785-1.75-1.75-1.75zM18.5 14.75c0 0.413-0.337 0.75-0.75 0.75s-0.75-0.337-0.75-0.75v-2.5c0-0.413 0.337-0.75 0.75-0.75s0.75 0.337 0.75 0.75v2.5z"></path>
<path d="M21.052 15.777l2-4 0.895 0.447-2 4-0.895-0.447z"></path>
<path d="M20.5 12.5h1v1h-1v-1z"></path>
<path d="M23.5 14.5h1v1h-1v-1z"></path>
</symbol>
<symbol id="icon-customer" viewBox="0 0 32 32">
<path d="M28.91 10.54c-0.41-1.5-3.175-9.54-12.91-9.54s-12.5 8.040-12.91 9.54c-1.191 0.203-2.087 1.227-2.090 2.46v6.5c0 1.381 1.119 2.5 2.5 2.5v0h3.27c1.814 3.297 5.266 5.494 9.23 5.494s7.416-2.197 9.203-5.44l0.027-0.054h1.385c-0.935 2.285-3.69 7-10.615 7-0.552 0-1 0.448-1 1s0.448 1 1 1v0c8.905 0 11.965-6.73 12.75-9 1.269-0.131 2.25-1.195 2.25-2.487 0-0.004 0-0.009-0-0.013v0.001-6.5c-0.003-1.233-0.899-2.257-2.075-2.458l-0.015-0.002zM5.94 20h-2.44c-0.276 0-0.5-0.224-0.5-0.5v0-6.5c0-0.276 0.224-0.5 0.5-0.5v0h2.44c-0.277 0.898-0.438 1.93-0.44 2.999v1.501c0.002 1.070 0.163 2.102 0.46 3.075l-0.020-0.075zM24.5 17c0 4.694-3.806 8.5-8.5 8.5s-8.5-3.806-8.5-8.5v0-1.5c0-4.694 3.806-8.5 8.5-8.5s8.5 3.806 8.5 8.5v0zM25.25 10.535c-1.806-3.328-5.273-5.549-9.259-5.549-3.972 0-7.429 2.206-9.213 5.459l-0.027 0.055h-1.555c0.705-2 3.305-7.5 10.805-7.5s10.12 5.5 10.81 7.5h-1.31c-0.090 0.002-0.175 0.014-0.257 0.037l0.007-0.002zM29 19.5c0 0.276-0.224 0.5-0.5 0.5v0h-2.44c0.277-0.898 0.438-1.93 0.44-2.999v-1.501c-0.002-1.070-0.163-2.102-0.46-3.075l0.020 0.075h2.44c0.276 0 0.5 0.224 0.5 0.5v0z"></path>
</symbol>
<symbol id="icon-deliver" viewBox="0 0 32 32">
<path d="M7.040 7.040c-3.88 0-7.040 3.16-7.040 7.040 0 1.502 0.477 2.893 1.28 4.037v8.765c0 1.063 0.858 1.918 1.92 1.918h1.34c0.305 1.81 1.885 3.2 3.78 3.2s3.475-1.39 3.78-3.2h5.92c0.475 0 0.907-0.192 1.232-0.495 0.328 0.29 0.745 0.49 1.223 0.495h0.705c0.305 1.81 1.885 3.2 3.78 3.2 2.113 0 3.84-1.727 3.84-3.84s-1.727-3.84-3.84-3.84c-1.895 0-3.475 1.39-3.78 3.2h-0.695c-0.12 0-0.3-0.075-0.435-0.21-0.137-0.137-0.21-0.313-0.21-0.43v-12.16c0-0.24 0.4-0.64 0.64-0.64h5.12c0.508 0 1.23 0.555 1.72 1.143l0.1 0.137h-3.1c-1.020 0-1.92 0.825-1.92 1.92v2.56c0 0.532 0.247 0.992 0.587 1.332s0.8 0.587 1.332 0.587h6.4v5.12c0 0.24-0.4 0.64-0.64 0.64h-1.28v1.28h1.28c1.063 0 1.92-0.858 1.92-1.92v-6.152c0-1.465-1.023-2.76-1.023-2.76l-0.008-0.008-2.663-3.55c-0.59-0.713-1.483-1.61-2.707-1.61h-5.12c-0.227 0-0.44 0.045-0.64 0.117v-1.457c0-0.982-0.775-1.86-1.8-1.86h-5.572c-1.295-1.563-3.248-2.56-5.428-2.56zM7.040 8.32c3.187 0 5.76 2.572 5.76 5.76s-2.572 5.76-5.76 5.76c-3.188 0-5.76-2.573-5.76-5.76s2.572-5.76 5.76-5.76zM7.030 8.95c-0.353 0.008-0.635 0.297-0.63 0.65v3.7c-0.235 0.193-0.37 0.477-0.37 0.78 0 0.033 0.003 0.065 0.005 0.1l-1.367 1.367c-0.168 0.16-0.235 0.4-0.175 0.622 0.058 0.225 0.232 0.4 0.458 0.457 0.223 0.060 0.463-0.008 0.623-0.175l1.367-1.367c0.032 0.002 0.067 0.005 0.1 0.005 0.558 0 1.010-0.453 1.010-1.010 0-0.303-0.135-0.588-0.37-0.78v-3.7c0.003-0.172-0.065-0.34-0.188-0.463s-0.29-0.19-0.463-0.188zM13.303 10.88h4.737c0.275 0 0.52 0.265 0.52 0.58v3.248c0 0.005 0 0.008 0 0.012v12.16c0 0.005 0 0.008 0 0.010v0.090c0 0.302-0.238 0.54-0.54 0.54h-5.92c-0.305-1.81-1.885-3.2-3.78-3.2s-3.475 1.39-3.78 3.2h-1.34c-0.24 0-0.64-0.4-0.64-0.637v-7.38c1.217 1.010 2.78 1.617 4.48 1.617 3.88 0 7.040-3.16 7.040-7.040 0-1.152-0.283-2.24-0.777-3.2zM24.32 16.64h4.060l1.555 2.072c0.003 0.005 0.587 1.003 0.71 1.767h-6.325c-0.108 0-0.288-0.073-0.427-0.212s-0.212-0.32-0.212-0.427v-2.56c0-0.323 0.38-0.64 0.64-0.64zM8.32 25.6c1.422 0 2.56 1.137 2.56 2.56s-1.137 2.56-2.56 2.56c-1.423 0-2.56-1.137-2.56-2.56s1.138-2.56 2.56-2.56zM24.96 25.6c1.422 0 2.56 1.137 2.56 2.56s-1.137 2.56-2.56 2.56c-1.422 0-2.56-1.137-2.56-2.56s1.137-2.56 2.56-2.56z"></path>
</symbol>
<symbol id="icon-personal" viewBox="0 0 32 32">
<path d="M31.059 26.977l0.941-4.072-1.445-0.333c-0.022-0.184-0.054-0.367-0.091-0.549l1.258-0.786-2.215-3.544-1.258 0.786c-0.146-0.114-0.296-0.223-0.452-0.324l0.334-1.446-4.074-0.939-0.332 1.447c-0.184 0.022-0.367 0.053-0.55 0.093l-0.788-1.26-2.531 1.584c-0.89-0.432-1.835-0.793-2.826-1.044 2.472-1.663 4.175-4.94 4.175-7.894 0-4.166-3.38-7.545-7.545-7.545s-7.544 3.377-7.544 7.545c0 2.954 1.702 6.231 4.174 7.894-5.912 1.497-10.29 6.629-10.29 10.432 0 2.246 6.829 3.369 13.658 3.369l-3.825-3.825 3.222-7.788h-0.033l-1.252-1.436c0.604 0.218 1.236 0.348 1.89 0.348s1.284-0.13 1.888-0.346l-1.252 1.433h-0.031l3.221 7.788-3.825 3.826c2.526 0 5.052-0.154 7.231-0.461l3.972 0.921 0.334-1.446c0.185-0.024 0.369-0.054 0.552-0.094l0.785 1.258 3.541-2.215-0.785-1.257c0.117-0.146 0.224-0.297 0.324-0.453l1.444 0.334zM29.030 25.338c-0.267 0.605-0.661 1.162-1.163 1.63l0.64 1.025-1.607 1.005-0.641-1.026c-0.641 0.247-1.314 0.358-1.973 0.332l-0.274 1.178-1.847-0.427 0.271-1.176c-0.605-0.269-1.162-0.661-1.629-1.164l-1.027 0.641-1.006-1.61 1.026-0.641c-0.247-0.643-0.356-1.311-0.334-1.975l-1.177-0.271 0.429-1.849 1.177 0.27c0.268-0.605 0.662-1.16 1.166-1.63l-0.64-1.026 1.605-1.004 0.642 1.026c0.641-0.247 1.313-0.356 1.975-0.332l0.269-1.178 1.852 0.425-0.271 1.176c0.605 0.271 1.158 0.663 1.627 1.167l1.024-0.641 1.008 1.611-1.025 0.64c0.245 0.64 0.356 1.314 0.332 1.974l1.175 0.271-0.427 1.851-1.176-0.272z"></path>
<path d="M13.658 30.39h-0.001z"></path>
<path d="M24.46 19.901c1.882 0 3.409 1.527 3.409 3.409 0 1.884-1.526 3.409-3.409 3.409s-3.408-1.525-3.408-3.409c0-1.881 1.525-3.409 3.408-3.409z"></path>
</symbol>
<symbol id="icon-goods" viewBox="0 0 32 32">
<path d="M10 9v-0.698c0-3.468 2.672-6.302 6-6.302s6 2.834 6 6.302v0.7h4.096c0.517 0.001 0.942 0.393 0.994 0.896l0 0.004 1.8 18c0.003 0.030 0.005 0.065 0.005 0.1 0 0.552-0.447 0.999-0.999 1h-23.792c-0.552-0.001-0.999-0.448-0.999-1 0-0.035 0.002-0.070 0.005-0.104l-0 0.004 1.8-18c0.052-0.507 0.477-0.899 0.994-0.9h4.096zM12 9h8v-0.698c0-2.388-1.804-4.302-4-4.302s-4 1.914-4 4.302v0.7zM10 11h-3.19l-1.6 16h21.58l-1.602-16h-3.188v3c0 0.552-0.448 1-1 1s-1-0.448-1-1v0-3h-8v3c0 0.552-0.448 1-1 1s-1-0.448-1-1v0-3z"></path>
</symbol>
<symbol id="icon-plus" viewBox="0 0 32 32">
<path d="M17.333 4c0-0.736-0.597-1.333-1.333-1.333s-1.333 0.597-1.333 1.333v10.667h-10.667c-0.736 0-1.333 0.597-1.333 1.333s0.597 1.333 1.333 1.333h10.667v10.667c0 0.736 0.597 1.333 1.333 1.333s1.333-0.597 1.333-1.333v-10.667h10.667c0.736 0 1.333-0.597 1.333-1.333s-0.597-1.333-1.333-1.333h-10.667v-10.667z"></path>
</symbol>
<symbol id="icon-minus" viewBox="0 0 32 32">
<path d="M2.667 16c0-0.736 0.597-1.333 1.333-1.333h24c0.736 0 1.333 0.597 1.333 1.333s-0.597 1.333-1.333 1.333h-24c-0.736 0-1.333-0.597-1.333-1.333z"></path>
</symbol>
</svg>
